Episode 25, bitches.
 
http://www.tv.com/ghost-hunters/taps-meets-the-real-housewives-of-atlanta/episode/1365144/summary.html?tag=ep_guide;summary



Format                           : AVI
Format/Info                      : Audio Video Interleave
File size                        : 349 MiB
Duration                         : 43mn 38s
Overall bit rate                 : 1 117 Kbps
Writing application              : Lavf51.13.4
Writing library                  : VirtualDub build 32839/release

Video
ID                               : 0
Format                           : MPEG-4 Visual
Format profile                   : Advanced Simple@L5
Format settings, BVOP            : Yes
Format settings, QPel            : No
Format settings, GMC             : No warppoints
Format settings, Matrix          : Default (H.263)
Codec ID                         : XVID
Codec ID/Hint                    : XviD
Duration                         : 43mn 38s
Bit rate                         : 993 Kbps
Width                            : 624 pixels
Height                           : 352 pixels
Display aspect ratio             : 16:9
Frame rate                       : 29.970 fps
Color space                      : YUV
Chroma subsampling               : 4:2:0
Bit depth                        : 8 bits
Scan type                        : Progressive
Bits/(Pixel*Frame)               : 0.151
Stream size                      : 310 MiB (89%)
Writing library                  : XviD 1.2.1 (UTC 2008-12-04)

Audio
ID                               : 1
Format                           : MPEG Audio
Format version                   : Version 1
Format profile                   : Layer 3
Mode                             : Joint stereo
Mode extension                   : MS Stereo
Codec ID                         : 55
Codec ID/Hint                    : MP3
Duration                         : 43mn 37s
Bit rate mode                    : Constant
Bit rate                         : 112 Kbps
Channel(s)                       : 2 channels
Sampling rate                    : 48.0 KHz
Stream size                      : 34.9 MiB (10%)
Alignment                        : Split accross interleaves
Interleave, duration             : 33 ms (1.00 video frame)
Interleave, preload duration     : 500 ms
Writing library                  : LAME3.98r
Encoding settings                : -m j -V 4 -q 0 -lowpass 15.6 -b 112

